<svg id="Layer_1" data-name="Layer 1" xmlns="http://www.w3.org/2000/svg" viewBox="0 0 612 294.67"><defs><style>.cls-1{fill:#fff;}.cls-2{fill:#0b70d7;}</style></defs><path class="cls-1" d="M568.56,110A21.93,21.93,0,1,1,590.49,88,22,22,0,0,1,568.56,110Zm0-39.86A17.93,17.93,0,1,0,586.49,88,18,18,0,0,0,568.56,70.09Z"/><path class="cls-1" d="M562.08,99.67h-4V76h14.74a6.38,6.38,0,0,1,0,12.76H562.08Zm0-14.94h10.74a2.38,2.38,0,0,0,0-4.76H562.08Z"/><path class="cls-1" d="M574.94,99.67l-2.74-5.29c-.71-1.38-3.27-5.89-6.18-5.65l-.31-4c3.71-.29,7.28,2.48,10,7.8l4.1,7.13Z"/><polygon class="cls-2" points="507.37 92.19 532.12 92.19 448.22 201.4 422.19 201.4 507.37 92.19"/><polygon class="cls-2" points="446.94 92.19 422.19 92.19 506.08 201.4 532.12 201.4 446.94 92.19"/><polygon class="cls-1" points="460.44 92.19 485.19 92.19 401.3 201.4 375.26 201.4 460.44 92.19"/><polygon class="cls-1" points="400.01 92.19 375.26 92.19 459.15 201.4 485.19 201.4 400.01 92.19"/><rect class="cls-1" x="349.22" y="92.19" width="20.57" height="109.21"/><path class="cls-1" d="M345.37,121.93H325.12v-.32a10.29,10.29,0,0,0-10.29-10.29h-44a10.29,10.29,0,0,0-10.29,10.29h0a10.29,10.29,0,0,0,10.29,10.28h40.1a34.48,34.48,0,0,1,34.47,34.47v.57A34.47,34.47,0,0,1,310.9,201.4H276.34a34.47,34.47,0,0,1-34.47-34.47h19.28a14.79,14.79,0,0,0,14.79,14.78H310a14.79,14.79,0,0,0,14.79-14.78v-1.29A14.79,14.79,0,0,0,310,150.86H271.2a29.33,29.33,0,0,1-29.33-29.33h0A29.34,29.34,0,0,1,271.2,92.19H316a29.34,29.34,0,0,1,29.33,29.34Z"/><path class="cls-1" d="M216.79,121.93v-.32a10.29,10.29,0,0,0-10.28-10.29h-44a10.29,10.29,0,0,0,0,20.57h40.1A34.47,34.47,0,0,1,237,166.36v.57a34.47,34.47,0,0,1-34.47,34.47H161a32.93,32.93,0,0,1-29.29-17.88l-24.88-48.41L72.79,201.4H51.31L106.87,92.19,145,166.93l3.13,6.14a15.85,15.85,0,0,0,14.11,8.64h39.48a14.78,14.78,0,0,0,14.78-14.78v-1.29a14.78,14.78,0,0,0-14.78-14.78H162.88a29.34,29.34,0,1,1,0-58.67h44.83A29.34,29.34,0,0,1,237,121.53v.4Z"/></svg>